<?xml version="1.0" encoding="UTF-8" standalone="no"?>
<!DOCTYPE svg PUBLIC "-//W3C//DTD SVG 1.1//EN"
 "http://www.w3.org/Graphics/SVG/1.1/DTD/svg11.dtd">
<!-- Generated by graphviz version 2.43.0 (0)
 -->
<!-- Pages: 1 -->
<svg width="1052pt" height="260pt"
 viewBox="0.00 0.00 1052.31 260.00" xmlns="http://www.w3.org/2000/svg" xmlns:xlink="http://www.w3.org/1999/xlink">
<g id="graph0" class="graph" transform="scale(1 1) rotate(0) translate(4 256)">
<polygon fill="white" stroke="transparent" points="-4,4 -4,-256 1048.31,-256 1048.31,4 -4,4"/>
<!-- root_scene_ef198cc8 -->
<g id="node1" class="node">
<title>root_scene_ef198cc8</title>
<ellipse fill="none" stroke="black" cx="106.59" cy="-153" rx="106.68" ry="18"/>
<text text-anchor="middle" x="106.59" y="-149.3" font-family="Times,serif" font-size="14.00">root_scene_ef198cc8</text>
</g>
<!-- create_desk_921ce9ce -->
<g id="node2" class="node">
<title>create_desk_921ce9ce</title>
<ellipse fill="none" stroke="black" cx="453.91" cy="-207" rx="114.28" ry="18"/>
<text text-anchor="middle" x="453.91" y="-203.3" font-family="Times,serif" font-size="14.00">create_desk_921ce9ce</text>
</g>
<!-- root_scene_ef198cc8&#45;&gt;create_desk_921ce9ce -->
<g id="edge1" class="edge">
<title>root_scene_ef198cc8&#45;&gt;create_desk_921ce9ce</title>
<path fill="none" stroke="black" d="M185.52,-165.19C237.95,-173.39 307.27,-184.23 362.19,-192.81"/>
<polygon fill="black" stroke="black" points="361.85,-196.3 372.27,-194.39 362.93,-189.39 361.85,-196.3"/>
</g>
<!-- place_random_objects_on_desk_3184949e -->
<g id="node3" class="node">
<title>place_random_objects_on_desk_3184949e</title>
<ellipse fill="none" stroke="black" cx="453.91" cy="-126" rx="204.96" ry="18"/>
<text text-anchor="middle" x="453.91" y="-122.3" font-family="Times,serif" font-size="14.00">place_random_objects_on_desk_3184949e</text>
</g>
<!-- root_scene_ef198cc8&#45;&gt;place_random_objects_on_desk_3184949e -->
<g id="edge2" class="edge">
<title>root_scene_ef198cc8&#45;&gt;place_random_objects_on_desk_3184949e</title>
<path fill="none" stroke="black" d="M203.78,-145.48C230.68,-143.38 260.67,-141.03 290.28,-138.72"/>
<polygon fill="black" stroke="black" points="290.6,-142.2 300.3,-137.93 290.05,-135.22 290.6,-142.2"/>
</g>
<!-- table_231d7222 -->
<g id="node4" class="node">
<title>table_231d7222</title>
<ellipse fill="none" stroke="black" cx="869.48" cy="-234" rx="85.29" ry="18"/>
<text text-anchor="middle" x="869.48" y="-230.3" font-family="Times,serif" font-size="14.00">table_231d7222</text>
</g>
<!-- create_desk_921ce9ce&#45;&gt;table_231d7222 -->
<g id="edge3" class="edge">
<title>create_desk_921ce9ce&#45;&gt;table_231d7222</title>
<path fill="none" stroke="black" d="M559.81,-213.85C627.04,-218.24 713.44,-223.88 777.72,-228.07"/>
<polygon fill="black" stroke="black" points="777.64,-231.58 787.84,-228.74 778.09,-224.59 777.64,-231.58"/>
</g>
<!-- waic_beverage_bottle_3d06d1ba -->
<g id="node5" class="node">
<title>waic_beverage_bottle_3d06d1ba</title>
<ellipse fill="none" stroke="black" cx="869.48" cy="-180" rx="161.37" ry="18"/>
<text text-anchor="middle" x="869.48" y="-176.3" font-family="Times,serif" font-size="14.00">waic_beverage_bottle_3d06d1ba</text>
</g>
<!-- place_random_objects_on_desk_3184949e&#45;&gt;waic_beverage_bottle_3d06d1ba -->
<g id="edge4" class="edge">
<title>place_random_objects_on_desk_3184949e&#45;&gt;waic_beverage_bottle_3d06d1ba</title>
<path fill="none" stroke="black" d="M569.02,-140.9C626.53,-148.41 696.11,-157.49 753.71,-165.01"/>
<polygon fill="black" stroke="black" points="753.59,-168.53 763.95,-166.35 754.49,-161.59 753.59,-168.53"/>
</g>
<!-- benchmark_green_apple_3d5d271b -->
<g id="node6" class="node">
<title>benchmark_green_apple_3d5d271b</title>
<ellipse fill="none" stroke="black" cx="869.48" cy="-126" rx="174.67" ry="18"/>
<text text-anchor="middle" x="869.48" y="-122.3" font-family="Times,serif" font-size="14.00">benchmark_green_apple_3d5d271b</text>
</g>
<!-- place_random_objects_on_desk_3184949e&#45;&gt;benchmark_green_apple_3d5d271b -->
<g id="edge5" class="edge">
<title>place_random_objects_on_desk_3184949e&#45;&gt;benchmark_green_apple_3d5d271b</title>
<path fill="none" stroke="black" d="M658.67,-126C667.31,-126 675.97,-126 684.57,-126"/>
<polygon fill="black" stroke="black" points="684.63,-129.5 694.63,-126 684.63,-122.5 684.63,-129.5"/>
</g>
<!-- benchmark_pen_287f6482 -->
<g id="node7" class="node">
<title>benchmark_pen_287f6482</title>
<ellipse fill="none" stroke="black" cx="869.48" cy="-72" rx="132.68" ry="18"/>
<text text-anchor="middle" x="869.48" y="-68.3" font-family="Times,serif" font-size="14.00">benchmark_pen_287f6482</text>
</g>
<!-- place_random_objects_on_desk_3184949e&#45;&gt;benchmark_pen_287f6482 -->
<g id="edge6" class="edge">
<title>place_random_objects_on_desk_3184949e&#45;&gt;benchmark_pen_287f6482</title>
<path fill="none" stroke="black" d="M569.02,-111.1C629.7,-103.18 703.81,-93.5 763.13,-85.76"/>
<polygon fill="black" stroke="black" points="763.8,-89.2 773.27,-84.43 762.9,-82.26 763.8,-89.2"/>
</g>
<!-- benchmark_toy_car_53515aaa -->
<g id="node8" class="node">
<title>benchmark_toy_car_53515aaa</title>
<ellipse fill="none" stroke="black" cx="869.48" cy="-18" rx="150.27" ry="18"/>
<text text-anchor="middle" x="869.48" y="-14.3" font-family="Times,serif" font-size="14.00">benchmark_toy_car_53515aaa</text>
</g>
<!-- place_random_objects_on_desk_3184949e&#45;&gt;benchmark_toy_car_53515aaa -->
<g id="edge7" class="edge">
<title>place_random_objects_on_desk_3184949e&#45;&gt;benchmark_toy_car_53515aaa</title>
<path fill="none" stroke="black" d="M499.3,-108.44C546.92,-90.2 625.09,-62.02 694.64,-45 714.15,-40.23 735.1,-36.13 755.47,-32.67"/>
<polygon fill="black" stroke="black" points="756.12,-36.11 765.41,-31.02 754.97,-29.2 756.12,-36.11"/>
</g>
</g>
</svg>
