<?xml version="1.0" encoding="UTF-8" standalone="no"?>
<!DOCTYPE svg PUBLIC "-//W3C//DTD SVG 1.1//EN"
 "http://www.w3.org/Graphics/SVG/1.1/DTD/svg11.dtd">
<!-- Generated by graphviz version 2.43.0 (0)
 -->
<!-- Pages: 1 -->
<svg width="1082pt" height="260pt"
 viewBox="0.00 0.00 1082.21 260.00" xmlns="http://www.w3.org/2000/svg" xmlns:xlink="http://www.w3.org/1999/xlink">
<g id="graph0" class="graph" transform="scale(1 1) rotate(0) translate(4 256)">
<polygon fill="white" stroke="transparent" points="-4,4 -4,-256 1078.21,-256 1078.21,4 -4,4"/>
<!-- root_scene_040648ef -->
<g id="node1" class="node">
<title>root_scene_040648ef</title>
<ellipse fill="none" stroke="black" cx="108.54" cy="-153" rx="108.58" ry="18"/>
<text text-anchor="middle" x="108.54" y="-149.3" font-family="Times,serif" font-size="14.00">root_scene_040648ef</text>
</g>
<!-- create_desk_4a769699 -->
<g id="node2" class="node">
<title>create_desk_4a769699</title>
<ellipse fill="none" stroke="black" cx="453.26" cy="-207" rx="116.18" ry="18"/>
<text text-anchor="middle" x="453.26" y="-203.3" font-family="Times,serif" font-size="14.00">create_desk_4a769699</text>
</g>
<!-- root_scene_040648ef&#45;&gt;create_desk_4a769699 -->
<g id="edge1" class="edge">
<title>root_scene_040648ef&#45;&gt;create_desk_4a769699</title>
<path fill="none" stroke="black" d="M187.74,-165.32C239.35,-173.45 307.16,-184.14 361.2,-192.65"/>
<polygon fill="black" stroke="black" points="360.7,-196.12 371.12,-194.22 361.79,-189.2 360.7,-196.12"/>
</g>
<!-- place_random_objects_on_desk_1fbda02f -->
<g id="node3" class="node">
<title>place_random_objects_on_desk_1fbda02f</title>
<ellipse fill="none" stroke="black" cx="453.26" cy="-126" rx="200.36" ry="18"/>
<text text-anchor="middle" x="453.26" y="-122.3" font-family="Times,serif" font-size="14.00">place_random_objects_on_desk_1fbda02f</text>
</g>
<!-- root_scene_040648ef&#45;&gt;place_random_objects_on_desk_1fbda02f -->
<g id="edge2" class="edge">
<title>root_scene_040648ef&#45;&gt;place_random_objects_on_desk_1fbda02f</title>
<path fill="none" stroke="black" d="M206.83,-145.34C233.39,-143.24 262.88,-140.92 291.95,-138.63"/>
<polygon fill="black" stroke="black" points="292.51,-142.1 302.2,-137.82 291.96,-135.12 292.51,-142.1"/>
</g>
<!-- table_0b9d06d8 -->
<g id="node4" class="node">
<title>table_0b9d06d8</title>
<ellipse fill="none" stroke="black" cx="881.83" cy="-234" rx="85.29" ry="18"/>
<text text-anchor="middle" x="881.83" y="-230.3" font-family="Times,serif" font-size="14.00">table_0b9d06d8</text>
</g>
<!-- create_desk_4a769699&#45;&gt;table_0b9d06d8 -->
<g id="edge3" class="edge">
<title>create_desk_4a769699&#45;&gt;table_0b9d06d8</title>
<path fill="none" stroke="black" d="M561.35,-213.78C631.77,-218.24 722.93,-224.01 789.84,-228.24"/>
<polygon fill="black" stroke="black" points="789.75,-231.74 799.95,-228.88 790.19,-224.76 789.75,-231.74"/>
</g>
<!-- benchmark_beverage_bottle_52275814 -->
<g id="node5" class="node">
<title>benchmark_beverage_bottle_52275814</title>
<ellipse fill="none" stroke="black" cx="881.83" cy="-180" rx="192.27" ry="18"/>
<text text-anchor="middle" x="881.83" y="-176.3" font-family="Times,serif" font-size="14.00">benchmark_beverage_bottle_52275814</text>
</g>
<!-- place_random_objects_on_desk_1fbda02f&#45;&gt;benchmark_beverage_bottle_52275814 -->
<g id="edge4" class="edge">
<title>place_random_objects_on_desk_1fbda02f&#45;&gt;benchmark_beverage_bottle_52275814</title>
<path fill="none" stroke="black" d="M569.98,-140.65C627.7,-147.96 697.58,-156.8 756.45,-164.26"/>
<polygon fill="black" stroke="black" points="756.19,-167.75 766.56,-165.53 757.07,-160.81 756.19,-167.75"/>
</g>
<!-- benchmark_orange_213f065a -->
<g id="node6" class="node">
<title>benchmark_orange_213f065a</title>
<ellipse fill="none" stroke="black" cx="881.83" cy="-126" rx="147.57" ry="18"/>
<text text-anchor="middle" x="881.83" y="-122.3" font-family="Times,serif" font-size="14.00">benchmark_orange_213f065a</text>
</g>
<!-- place_random_objects_on_desk_1fbda02f&#45;&gt;benchmark_orange_213f065a -->
<g id="edge5" class="edge">
<title>place_random_objects_on_desk_1fbda02f&#45;&gt;benchmark_orange_213f065a</title>
<path fill="none" stroke="black" d="M653.5,-126C677.13,-126 700.99,-126 723.91,-126"/>
<polygon fill="black" stroke="black" points="724.02,-129.5 734.02,-126 724.02,-122.5 724.02,-129.5"/>
</g>
<!-- benchmark_pen_95491125 -->
<g id="node7" class="node">
<title>benchmark_pen_95491125</title>
<ellipse fill="none" stroke="black" cx="881.83" cy="-72" rx="135.38" ry="18"/>
<text text-anchor="middle" x="881.83" y="-68.3" font-family="Times,serif" font-size="14.00">benchmark_pen_95491125</text>
</g>
<!-- place_random_objects_on_desk_1fbda02f&#45;&gt;benchmark_pen_95491125 -->
<g id="edge6" class="edge">
<title>place_random_objects_on_desk_1fbda02f&#45;&gt;benchmark_pen_95491125</title>
<path fill="none" stroke="black" d="M569.98,-111.35C633.2,-103.35 711,-93.5 772.94,-85.66"/>
<polygon fill="black" stroke="black" points="773.66,-89.1 783.14,-84.37 772.78,-82.15 773.66,-89.1"/>
</g>
<!-- benchmark_toy_car_be0abb22 -->
<g id="node8" class="node">
<title>benchmark_toy_car_be0abb22</title>
<ellipse fill="none" stroke="black" cx="881.83" cy="-18" rx="150.57" ry="18"/>
<text text-anchor="middle" x="881.83" y="-14.3" font-family="Times,serif" font-size="14.00">benchmark_toy_car_be0abb22</text>
</g>
<!-- place_random_objects_on_desk_1fbda02f&#45;&gt;benchmark_toy_car_be0abb22 -->
<g id="edge7" class="edge">
<title>place_random_objects_on_desk_1fbda02f&#45;&gt;benchmark_toy_car_be0abb22</title>
<path fill="none" stroke="black" d="M497.3,-108.38C543.9,-89.97 620.8,-61.5 689.45,-45 711.93,-39.6 736.17,-35.14 759.6,-31.52"/>
<polygon fill="black" stroke="black" points="760.22,-34.97 769.58,-30.02 759.18,-28.05 760.22,-34.97"/>
</g>
</g>
</svg>
