<?xml version="1.0" encoding="UTF-8" standalone="no"?>
<!DOCTYPE svg PUBLIC "-//W3C//DTD SVG 1.1//EN"
 "http://www.w3.org/Graphics/SVG/1.1/DTD/svg11.dtd">
<!-- Generated by graphviz version 2.43.0 (0)
 -->
<!-- Pages: 1 -->
<svg width="1094pt" height="260pt"
 viewBox="0.00 0.00 1093.91 260.00" xmlns="http://www.w3.org/2000/svg" xmlns:xlink="http://www.w3.org/1999/xlink">
<g id="graph0" class="graph" transform="scale(1 1) rotate(0) translate(4 256)">
<polygon fill="white" stroke="transparent" points="-4,4 -4,-256 1089.91,-256 1089.91,4 -4,4"/>
<!-- root_scene_8ab631b0 -->
<g id="node1" class="node">
<title>root_scene_8ab631b0</title>
<ellipse fill="none" stroke="black" cx="111.14" cy="-153" rx="111.28" ry="18"/>
<text text-anchor="middle" x="111.14" y="-149.3" font-family="Times,serif" font-size="14.00">root_scene_8ab631b0</text>
</g>
<!-- create_desk_8c262ed3 -->
<g id="node2" class="node">
<title>create_desk_8c262ed3</title>
<ellipse fill="none" stroke="black" cx="462.36" cy="-207" rx="115.88" ry="18"/>
<text text-anchor="middle" x="462.36" y="-203.3" font-family="Times,serif" font-size="14.00">create_desk_8c262ed3</text>
</g>
<!-- root_scene_8ab631b0&#45;&gt;create_desk_8c262ed3 -->
<g id="edge1" class="edge">
<title>root_scene_8ab631b0&#45;&gt;create_desk_8c262ed3</title>
<path fill="none" stroke="black" d="M192.26,-165.39C245.15,-173.57 314.59,-184.31 369.69,-192.82"/>
<polygon fill="black" stroke="black" points="369.38,-196.32 379.8,-194.39 370.45,-189.4 369.38,-196.32"/>
</g>
<!-- place_random_objects_on_desk_91c24741 -->
<g id="node3" class="node">
<title>place_random_objects_on_desk_91c24741</title>
<ellipse fill="none" stroke="black" cx="462.36" cy="-126" rx="204.16" ry="18"/>
<text text-anchor="middle" x="462.36" y="-122.3" font-family="Times,serif" font-size="14.00">place_random_objects_on_desk_91c24741</text>
</g>
<!-- root_scene_8ab631b0&#45;&gt;place_random_objects_on_desk_91c24741 -->
<g id="edge2" class="edge">
<title>root_scene_8ab631b0&#45;&gt;place_random_objects_on_desk_91c24741</title>
<path fill="none" stroke="black" d="M211.75,-145.3C238.73,-143.21 268.67,-140.9 298.18,-138.62"/>
<polygon fill="black" stroke="black" points="298.46,-142.11 308.16,-137.84 297.92,-135.13 298.46,-142.11"/>
</g>
<!-- table_47f3845a -->
<g id="node4" class="node">
<title>table_47f3845a</title>
<ellipse fill="none" stroke="black" cx="894.18" cy="-234" rx="82.59" ry="18"/>
<text text-anchor="middle" x="894.18" y="-230.3" font-family="Times,serif" font-size="14.00">table_47f3845a</text>
</g>
<!-- create_desk_8c262ed3&#45;&gt;table_47f3845a -->
<g id="edge3" class="edge">
<title>create_desk_8c262ed3&#45;&gt;table_47f3845a</title>
<path fill="none" stroke="black" d="M569.88,-213.69C642.01,-218.22 736.19,-224.14 804.28,-228.42"/>
<polygon fill="black" stroke="black" points="804.36,-231.93 814.56,-229.06 804.8,-224.94 804.36,-231.93"/>
</g>
<!-- benchmark_beverage_bottle_53be4e89 -->
<g id="node5" class="node">
<title>benchmark_beverage_bottle_53be4e89</title>
<ellipse fill="none" stroke="black" cx="894.18" cy="-180" rx="191.97" ry="18"/>
<text text-anchor="middle" x="894.18" y="-176.3" font-family="Times,serif" font-size="14.00">benchmark_beverage_bottle_53be4e89</text>
</g>
<!-- place_random_objects_on_desk_91c24741&#45;&gt;benchmark_beverage_bottle_53be4e89 -->
<g id="edge4" class="edge">
<title>place_random_objects_on_desk_91c24741&#45;&gt;benchmark_beverage_bottle_53be4e89</title>
<path fill="none" stroke="black" d="M580.53,-140.72C638.8,-148.04 709.26,-156.89 768.53,-164.34"/>
<polygon fill="black" stroke="black" points="768.34,-167.84 778.7,-165.62 769.21,-160.9 768.34,-167.84"/>
</g>
<!-- benchmark_peach_cf8856b0 -->
<g id="node6" class="node">
<title>benchmark_peach_cf8856b0</title>
<ellipse fill="none" stroke="black" cx="894.18" cy="-126" rx="141.88" ry="18"/>
<text text-anchor="middle" x="894.18" y="-122.3" font-family="Times,serif" font-size="14.00">benchmark_peach_cf8856b0</text>
</g>
<!-- place_random_objects_on_desk_91c24741&#45;&gt;benchmark_peach_cf8856b0 -->
<g id="edge5" class="edge">
<title>place_random_objects_on_desk_91c24741&#45;&gt;benchmark_peach_cf8856b0</title>
<path fill="none" stroke="black" d="M666.63,-126C692.11,-126 717.81,-126 742.29,-126"/>
<polygon fill="black" stroke="black" points="742.33,-129.5 752.33,-126 742.33,-122.5 742.33,-129.5"/>
</g>
<!-- benchmark_pen_9caa809b -->
<g id="node7" class="node">
<title>benchmark_pen_9caa809b</title>
<ellipse fill="none" stroke="black" cx="894.18" cy="-72" rx="133.48" ry="18"/>
<text text-anchor="middle" x="894.18" y="-68.3" font-family="Times,serif" font-size="14.00">benchmark_pen_9caa809b</text>
</g>
<!-- place_random_objects_on_desk_91c24741&#45;&gt;benchmark_pen_9caa809b -->
<g id="edge6" class="edge">
<title>place_random_objects_on_desk_91c24741&#45;&gt;benchmark_pen_9caa809b</title>
<path fill="none" stroke="black" d="M580.53,-111.28C644.57,-103.23 723.34,-93.34 785.78,-85.49"/>
<polygon fill="black" stroke="black" points="786.57,-88.92 796.06,-84.2 785.7,-81.98 786.57,-88.92"/>
</g>
<!-- benchmark_toy_car_0c45f82a -->
<g id="node8" class="node">
<title>benchmark_toy_car_0c45f82a</title>
<ellipse fill="none" stroke="black" cx="894.18" cy="-18" rx="147.57" ry="18"/>
<text text-anchor="middle" x="894.18" y="-14.3" font-family="Times,serif" font-size="14.00">benchmark_toy_car_0c45f82a</text>
</g>
<!-- place_random_objects_on_desk_91c24741&#45;&gt;benchmark_toy_car_0c45f82a -->
<g id="edge7" class="edge">
<title>place_random_objects_on_desk_91c24741&#45;&gt;benchmark_toy_car_0c45f82a</title>
<path fill="none" stroke="black" d="M507.15,-108.41C554.55,-90.03 632.74,-61.59 702.44,-45 725.22,-39.58 749.8,-35.11 773.49,-31.46"/>
<polygon fill="black" stroke="black" points="774.22,-34.9 783.59,-29.95 773.18,-27.97 774.22,-34.9"/>
</g>
</g>
</svg>
