<?xml version="1.0" encoding="UTF-8" standalone="no"?>
<!DOCTYPE svg PUBLIC "-//W3C//DTD SVG 1.1//EN"
 "http://www.w3.org/Graphics/SVG/1.1/DTD/svg11.dtd">
<!-- Generated by graphviz version 2.43.0 (0)
 -->
<!-- Pages: 1 -->
<svg width="1020pt" height="260pt"
 viewBox="0.00 0.00 1019.82 260.00" xmlns="http://www.w3.org/2000/svg" xmlns:xlink="http://www.w3.org/1999/xlink">
<g id="graph0" class="graph" transform="scale(1 1) rotate(0) translate(4 256)">
<polygon fill="white" stroke="transparent" points="-4,4 -4,-256 1015.82,-256 1015.82,4 -4,4"/>
<!-- root_scene_d58fb8f2 -->
<g id="node1" class="node">
<title>root_scene_d58fb8f2</title>
<ellipse fill="none" stroke="black" cx="106.59" cy="-153" rx="106.68" ry="18"/>
<text text-anchor="middle" x="106.59" y="-149.3" font-family="Times,serif" font-size="14.00">root_scene_d58fb8f2</text>
</g>
<!-- create_desk_310ca446 -->
<g id="node2" class="node">
<title>create_desk_310ca446</title>
<ellipse fill="none" stroke="black" cx="453.26" cy="-207" rx="115.88" ry="18"/>
<text text-anchor="middle" x="453.26" y="-203.3" font-family="Times,serif" font-size="14.00">create_desk_310ca446</text>
</g>
<!-- root_scene_d58fb8f2&#45;&gt;create_desk_310ca446 -->
<g id="edge1" class="edge">
<title>root_scene_d58fb8f2&#45;&gt;create_desk_310ca446</title>
<path fill="none" stroke="black" d="M185.37,-165.19C237.52,-173.36 306.4,-184.15 361.12,-192.72"/>
<polygon fill="black" stroke="black" points="360.75,-196.2 371.17,-194.3 361.83,-189.29 360.75,-196.2"/>
</g>
<!-- place_random_objects_on_desk_5a7bee23 -->
<g id="node3" class="node">
<title>place_random_objects_on_desk_5a7bee23</title>
<ellipse fill="none" stroke="black" cx="453.26" cy="-126" rx="204.16" ry="18"/>
<text text-anchor="middle" x="453.26" y="-122.3" font-family="Times,serif" font-size="14.00">place_random_objects_on_desk_5a7bee23</text>
</g>
<!-- root_scene_d58fb8f2&#45;&gt;place_random_objects_on_desk_5a7bee23 -->
<g id="edge2" class="edge">
<title>root_scene_d58fb8f2&#45;&gt;place_random_objects_on_desk_5a7bee23</title>
<path fill="none" stroke="black" d="M203.6,-145.48C230.45,-143.38 260.39,-141.03 289.93,-138.72"/>
<polygon fill="black" stroke="black" points="290.24,-142.2 299.93,-137.93 289.69,-135.22 290.24,-142.2"/>
</g>
<!-- table_6665661e -->
<g id="node4" class="node">
<title>table_6665661e</title>
<ellipse fill="none" stroke="black" cx="852.58" cy="-234" rx="85.29" ry="18"/>
<text text-anchor="middle" x="852.58" y="-230.3" font-family="Times,serif" font-size="14.00">table_6665661e</text>
</g>
<!-- create_desk_310ca446&#45;&gt;table_6665661e -->
<g id="edge3" class="edge">
<title>create_desk_310ca446&#45;&gt;table_6665661e</title>
<path fill="none" stroke="black" d="M559.69,-214.16C622.39,-218.43 701.11,-223.77 761,-227.84"/>
<polygon fill="black" stroke="black" points="760.98,-231.35 771.2,-228.54 761.46,-224.37 760.98,-231.35"/>
</g>
<!-- waic_beverage_bottle_0915f7e9 -->
<g id="node5" class="node">
<title>waic_beverage_bottle_0915f7e9</title>
<ellipse fill="none" stroke="black" cx="852.58" cy="-180" rx="159.47" ry="18"/>
<text text-anchor="middle" x="852.58" y="-176.3" font-family="Times,serif" font-size="14.00">waic_beverage_bottle_0915f7e9</text>
</g>
<!-- place_random_objects_on_desk_5a7bee23&#45;&gt;waic_beverage_bottle_0915f7e9 -->
<g id="edge4" class="edge">
<title>place_random_objects_on_desk_5a7bee23&#45;&gt;waic_beverage_bottle_0915f7e9</title>
<path fill="none" stroke="black" d="M565.2,-141.08C619.78,-148.5 685.41,-157.41 740.06,-164.84"/>
<polygon fill="black" stroke="black" points="739.75,-168.33 750.13,-166.21 740.69,-161.4 739.75,-168.33"/>
</g>
<!-- benchmark_apple_9d4890fa -->
<g id="node6" class="node">
<title>benchmark_apple_9d4890fa</title>
<ellipse fill="none" stroke="black" cx="852.58" cy="-126" rx="140.28" ry="18"/>
<text text-anchor="middle" x="852.58" y="-122.3" font-family="Times,serif" font-size="14.00">benchmark_apple_9d4890fa</text>
</g>
<!-- place_random_objects_on_desk_5a7bee23&#45;&gt;benchmark_apple_9d4890fa -->
<g id="edge5" class="edge">
<title>place_random_objects_on_desk_5a7bee23&#45;&gt;benchmark_apple_9d4890fa</title>
<path fill="none" stroke="black" d="M657.58,-126C672.55,-126 687.48,-126 702.04,-126"/>
<polygon fill="black" stroke="black" points="702.06,-129.5 712.06,-126 702.06,-122.5 702.06,-129.5"/>
</g>
<!-- benchmark_pen_a04d8c82 -->
<g id="node7" class="node">
<title>benchmark_pen_a04d8c82</title>
<ellipse fill="none" stroke="black" cx="852.58" cy="-72" rx="133.78" ry="18"/>
<text text-anchor="middle" x="852.58" y="-68.3" font-family="Times,serif" font-size="14.00">benchmark_pen_a04d8c82</text>
</g>
<!-- place_random_objects_on_desk_5a7bee23&#45;&gt;benchmark_pen_a04d8c82 -->
<g id="edge6" class="edge">
<title>place_random_objects_on_desk_5a7bee23&#45;&gt;benchmark_pen_a04d8c82</title>
<path fill="none" stroke="black" d="M565.2,-110.92C622.38,-103.15 691.69,-93.73 747.81,-86.1"/>
<polygon fill="black" stroke="black" points="748.33,-89.57 757.76,-84.75 747.38,-82.63 748.33,-89.57"/>
</g>
<!-- benchmark_toy_car_ef6cac77 -->
<g id="node8" class="node">
<title>benchmark_toy_car_ef6cac77</title>
<ellipse fill="none" stroke="black" cx="852.58" cy="-18" rx="146.47" ry="18"/>
<text text-anchor="middle" x="852.58" y="-14.3" font-family="Times,serif" font-size="14.00">benchmark_toy_car_ef6cac77</text>
</g>
<!-- place_random_objects_on_desk_5a7bee23&#45;&gt;benchmark_toy_car_ef6cac77 -->
<g id="edge7" class="edge">
<title>place_random_objects_on_desk_5a7bee23&#45;&gt;benchmark_toy_car_ef6cac77</title>
<path fill="none" stroke="black" d="M499.46,-108.3C547.06,-90.23 624.52,-62.42 693.34,-45 710.56,-40.65 729,-36.79 747,-33.44"/>
<polygon fill="black" stroke="black" points="747.72,-36.87 756.94,-31.64 746.47,-29.98 747.72,-36.87"/>
</g>
</g>
</svg>
